<?xml version="1.0" encoding="utf-8"?>
<!-- Generator: Adobe Illustrator 16.0.0, SVG Export Plug-In . SVG Version: 6.00 Build 0)  -->
<!DOCTYPE svg PUBLIC "-//W3C//DTD SVG 1.1//EN" "http://www.w3.org/Graphics/SVG/1.1/DTD/svg11.dtd">
<svg version="1.1" xmlns="http://www.w3.org/2000/svg" xmlns:xlink="http://www.w3.org/1999/xlink" x="0px" y="0px"
	 width="337.668px" height="436.334px" viewBox="0 0 337.668 436.334" enable-background="new 0 0 337.668 436.334"
	 xml:space="preserve">
<g id="Layer_2">
	<rect y="-2.764" fill="#363B4C" width="337.668" height="440.432"/>
</g>
<g id="Layer_1">
	<path fill="#E5AC74" d="M172,49c0,0-90,0-90,67s7.5,131.5,7.5,131.5s8.039,36.485,45.271,58.188
		c10.114,5.896,22.383,10.7,37.229,13.387C172,282.075,172,49,172,49z"/>
	<path fill="#FDC286" d="M172,49c0,0,90,0,90,67s-7.5,131.5-7.5,131.5s-13,59-82.5,71.575C172,282.075,172,49,172,49z"/>
	<path fill="#F7C015" d="M89.5,111c7.5-11,15-6,19.5-4c33.5-22,50.5-4.5,64.5,0c28-18.5,69.5,9,69.5,9s4.5-6.5,13.92-25.01
		S260,66,262,59c-12,16.5-25,0-33.5,3.489c3-12.511,0.5-27.989,0-32.989c-9,12.5-16,15-25.058,23.733C210.385,24.967,200,9,198.5,0
		c-5,20.5-21.5,33.5-33.5,41c1.5-4.5,0-14,0-22c-7,13.625-15,18-19,21c-39.5,7.5-41.5,25-44,36c-5.5-4.5-12.5,0-12.5,0
		c-22.5,4.5,0,110.5,0,110.5S85.089,117.469,89.5,111z"/>
	<path fill="#E5AC74" d="M243,116"/>
	<path fill="#FFD160" d="M243,117.5c0,0,14,63.5,12,86c2.879,8.111,3.406,3.874,4.377-12.541s10.011-74.736-2.457-99.969
		S243,117.5,243,117.5z"/>
	<path fill="#FFD160" d="M172,36.274l-1.12,69.76c0,0,38.241-11.711,72.18,9.877C250.5,110,267.5,78,262,59c-3.5,4-7.5,7.5-14,7
		s-18-6.5-18-6.5l-1.5-30l-26,22.5c0,0,8.539-15.665-0.23-39.583S198.5,0,198.5,0S181,23.548,172,36.274z"/>
	<circle fill="#3658A7" cx="127.021" cy="173.25" r="7.75"/>
	<circle fill="#3658A7" cx="212" cy="173.25" r="7.75"/>
	<ellipse fill="#DAECF0" cx="128.73" cy="170" rx="1.708" ry="2.167"/>
	<ellipse fill="#DAECF0" cx="214.897" cy="170" rx="1.708" ry="2.167"/>
	<path fill="#F7C015" d="M96.271,154.667c0,0,21-34.667,48.667-11.667c2,1.667,2,9.333-7,5
		C133.605,146.667,127.938,134.334,96.271,154.667z"/>
	<path fill="#F7C015" d="M241.478,154.667c0,0-21-34.667-48.667-11.667c-2,1.667-2,9.333,7,5
		C204.144,146.667,209.811,134.334,241.478,154.667z"/>
	<path fill="#A71E22" d="M134.771,241.334H207C207,241.334,176,307,134.771,241.334z"/>
	<path fill="#D14A5A" d="M208,241.334c-4.25,0-35.5,0-35.5,0v29.174c0,0,20.25,2.242,34.5-29.174"/>
	<path fill="#2B5993" d="M71.497,405.066c-0.105,1.909-0.163,3.832-0.163,5.768c0,9.284,1.229,18.278,3.521,26.834h197.291
		c1.869-6.979,3.031-14.252,3.395-21.735c5.863,9.923,7.127,20.401,7.127,20.401s43.334,0,55,0
		c-11.998-87.115-85.422-110.554-116.8-116.629c-14.159-7.473-27.438,6.229-44.534,6.229c-15.539,0-33.098-14.437-46.284-8.19
		C119.068,318.731,14.525,330.869,0,436.334c11.667,0,55,0,55,0S57.458,415.879,71.497,405.066z"/>
	<path fill="#467FB7" d="M172.5,349.223v88.445h99.646c0,0,3.563-16.449,3.333-20.684c3.255,5.376,6.771,14.352,7.271,20.684
		c6.25,0,54.918,0,54.918,0s-2.113-94.379-114.016-117.398c-5.421-1.723-51.152,1.98-51.152,1.98"/>
	<polygon fill="#E5AC74" points="134.771,320.333 172,348.202 172,319.075 134.771,303.667 	"/>
	<polygon fill="#FDC286" points="208.864,322 171.636,349.869 172,318.241 208.864,305.334 	"/>
	<polygon fill="#203F7B" points="134.771,310 116,333 146.014,378.667 172.5,349.223 	"/>
	<polygon fill="#203F7B" points="209,310 230,333 199.984,378.667 173.5,349.223 	"/>
	<rect x="-656" y="-105" fill="#FFFFFF" width="502" height="278.25"/>
	<rect x="-360" y="-83" fill="#5D5E5E" width="165" height="39"/>
	<text transform="matrix(1 0 0 1 -318 -58)" fill="#FFFFFF" font-family="'MyriadPro-Regular'" font-size="24">Holiday</text>
</g>
</svg>
