<?xml version="1.0" encoding="utf-8"?>
<!-- Generator: Adobe Illustrator 16.0.0, SVG Export Plug-In . SVG Version: 6.00 Build 0)  -->
<!DOCTYPE svg PUBLIC "-//W3C//DTD SVG 1.1//EN" "http://www.w3.org/Graphics/SVG/1.1/DTD/svg11.dtd">
<svg version="1.1" xmlns="http://www.w3.org/2000/svg" xmlns:xlink="http://www.w3.org/1999/xlink" x="0px" y="0px" width="558px"
	 height="266px" viewBox="0 0 558 266" enable-background="new 0 0 558 266" xml:space="preserve">
<g id="Layer_1" display="none">
</g>
<g id="Base">
	<rect x="2.246" y="30.226" fill="none" width="552.754" height="242.549"/>
	<text transform="matrix(1 0 0 1 2.2461 239.9224)" display="none" font-family="'Geogrotesque-Bold'" font-size="300">HSD</text>
	<rect x="57.833" y="115.833" fill="#E11F26" width="76.167" height="41.333"/>
	<g>
		
			<image overflow="visible" opacity="0.55" width="285" height="494" xlink:href="C98F3CF9.png"  transform="matrix(0.24 0 0 0.24 478.625 81.6602)">
		</image>
		<g>
			<rect x="485.625" y="88.66" fill="#E11F26" width="50.244" height="100.34"/>
		</g>
	</g>
	<g>
		
			<image overflow="visible" opacity="0.55" width="552" height="325" xlink:href="C98F3CFB.png"  transform="matrix(0.24 0 0 0.24 414.5 28.7271)">
		</image>
		<g>
			<path fill="#E11F26" d="M421.5,36v41.25H460c0,0,25.29-0.291,25.625,17.375c11.75,0,49.875,0.875,49.875,0.875
				s8.164-48-52.25-57.75C463.475,34.708,436.966,36,421.5,36z"/>
		</g>
	</g>
	<g>
		
			<image overflow="visible" opacity="0.75" width="271" height="100" xlink:href="C98F3CFE.png"  transform="matrix(0.24 0 0 0.24 478.625 173.5767)">
		</image>
		<g>
			<rect x="485.625" y="180.577" fill="#E11F26" width="46.875" height="5.923"/>
		</g>
	</g>
	<g>
		<g>
			
				<image overflow="visible" opacity="0.75" width="123" height="263" xlink:href="C98F3CFF.png"  transform="matrix(0.24 0 0 0.24 113.8291 106.5)">
			</image>
			<g>
				<rect x="123.829" y="116.5" fill="#E11F26" width="5.338" height="39"/>
			</g>
		</g>
		<g>
			
				<image overflow="visible" opacity="0.75" width="123" height="266" xlink:href="C98F3CFA.png"  transform="matrix(0.24 0 0 0.24 54 105.8335)">
			</image>
			<g>
				<rect x="64" y="115.833" fill="#E11F26" width="5.334" height="39.667"/>
			</g>
		</g>
	</g>
	<g>
		
			<image overflow="visible" opacity="0.75" width="109" height="221" xlink:href="C98F3CF5.png"  transform="matrix(0.24 0 0 0.24 415.75 32.25)">
		</image>
		<g>
			<rect x="422.75" y="39.25" fill="#E11F26" width="8" height="35"/>
		</g>
	</g>
	<path fill="#E11F26" d="M50.417,36c0,0,12.417,0,12.917,0c7.448,0,6.416,10.5,6.416,10.5v109.75c0,0,0,71.25,0,77.25s-6.5,6-6.5,6
		s-32.75,0-37.875,0S20.25,231,20.25,231s0-180,0-187.75S27.917,36,27.917,36H50.417z"/>
	<path fill="#E11F26" d="M154.417,36c0,0,12.417,0,12.917,0c7.448,0,6.416,10.5,6.416,10.5v109.75c0,0,0,71.25,0,77.25s-6.5,6-6.5,6
		s-32.75,0-37.875,0s-5.125-8.5-5.125-8.5s0-180,0-187.75s7.667-7.25,7.667-7.25H154.417z"/>
	<g>
		
			<image overflow="visible" opacity="0.75" width="109" height="221" xlink:href="C98F3CF6.png"  transform="matrix(0.24 0 0 0.24 414.75 194.25)">
		</image>
		<g>
			<rect x="421.75" y="201.25" fill="#E11F26" width="8" height="35"/>
		</g>
	</g>
	<path fill="#E11F26" d="M207.834,91.167c0,0-2.667,34.833,18.166,45.666c19.314,10.043,64.333,25.291,64.333,25.291
		s16.64,8.467,14.403,21.422c9.097,0,48.727,0,48.727,0s5.036-42.879-26.13-54.212s-63.5-23.167-63.5-23.167
		s-7.501-1.514-7.667-17.507C249.167,88.66,207.834,91.167,207.834,91.167z"/>
	<g>
		
			<image overflow="visible" opacity="0.49" width="296" height="117" xlink:href="C98F3CF7.png"  transform="matrix(0.24 0 0 0.24 285.8623 157.6665)">
		</image>
		<g>
			<path fill="#E11F26" d="M288.862,161.667h63.462l0.635,3.708l0.805,8.75l0.039,8.257l-48.97,1.164
				C304.833,183.546,307.833,171,288.862,161.667z"/>
		</g>
	</g>
	<g>
		
			<image overflow="visible" opacity="0.32" width="502" height="275" xlink:href="C98F3D09.png"  transform="matrix(0.24 0 0 0.24 417.5 174.7275)">
		</image>
		<g>
			<path fill="#E11F26" d="M421.5,239.228v-41.25H460c0,0,25.289,0.29,25.625-17.375c11.75,0,49.875-0.875,49.875-0.875
				s8.164,48-52.25,57.75C463.475,240.52,436.965,239.228,421.5,239.228z"/>
		</g>
	</g>
	<g>
		
			<image overflow="visible" opacity="0.55" width="286" height="923" xlink:href="21B3D002.png"  transform="matrix(0.24 0 0 0.24 373.917 29.0601)">
		</image>
		<g>
			<path fill="#E11F26" d="M411.743,36.066c0,0,12.688,0,13.199,0c7.611,0,6.557,10.5,6.557,10.5v109.75c0,0,0,71.25,0,77.25
				s-6.643,6-6.643,6s-33.466,0-38.702,0c-5.237,0-5.237-8.5-5.237-8.5s0-180,0-187.75s7.835-7.25,7.835-7.25H411.743z"/>
		</g>
	</g>
	<g>
		
			<image overflow="visible" opacity="0.75" width="256" height="91" xlink:href="21B3D005.png"  transform="matrix(0.24 0 0 0.24 202.084 77.9927)">
		</image>
		<g>
			<rect x="209.084" y="84.993" fill="#E11F26" width="43.333" height="3.667"/>
		</g>
	</g>
	<g>
		
			<image overflow="visible" opacity="0.49" width="237" height="54" xlink:href="21B3D006.png"  transform="matrix(0.24 0 0 0.24 207.375 97.5)">
		</image>
		<g>
			<polygon fill="#E11F26" points="209.084,105.333 208.375,100.5 256.5,98.5 259.25,105.333 			"/>
		</g>
	</g>
	<path fill="#E11F26" d="M310.334,105.167c9.667,0,34.833,0,34.833,0s6.167-1.833,6.167-6.25s0-22.083,0-22.083
		s-3.666-31.392-38.833-39c-2.334-1.167-23.167-7.608-52.334-3.167c-5.666,0.667-43.666,4.667-50.833,37
		c-3.666,15.159-1.115,33.667-1.115,33.667h53.743c0,0-21.794-29.667,20.205-32.833C316.168,73.167,305.699,105.167,310.334,105.167
		z"/>
	<path fill="#E11F26" d="M253.813,176.216c0,0,2.749-14.092-7.884-14.092s-38.313,0-38.313,0s-6.782,2.067-6.782,7.046
		c0,4.979,0,24.895,0,24.895s4.032,35.39,42.712,43.968c2.566,1.315,25.481,8.577,57.562,3.57
		c6.232-0.752,46.726-7.437,51.393-41.27c1.65-6.201,1.264-22.49,1.264-22.49l-48.931-1.01c0,0,5,22.167-27.924,22.118
		C274.803,198.952,253.629,197.448,253.813,176.216z"/>
	<path fill="#E11F26" d="M399.667,36"/>
</g>
<g id="HSD">
</g>
</svg>
